<?xml version="1.0" standalone="no"?>
<!DOCTYPE svg PUBLIC "-//W3C//DTD SVG 20010904//EN"
 "http://www.w3.org/TR/2001/REC-SVG-20010904/DTD/svg10.dtd">
<svg version="1.0" xmlns="http://www.w3.org/2000/svg"
 width="512.000000pt" height="644.000000pt" viewBox="0 0 512.000000 644.000000"
 preserveAspectRatio="xMidYMid meet">

<g transform="translate(0.000000,644.000000) scale(0.100000,-0.100000)"
fill="#000000" stroke="none">
<path d="M767 5688 l-24 -24 -6 -889 c-9 -1215 8 -3686 25 -3697 15 -9 3254
-11 3610 -1 l247 6 12 29 c9 22 11 450 7 1842 l-5 1813 -21 34 c-11 19 -34 44
-51 56 -16 13 -100 101 -186 198 -156 176 -471 509 -561 597 l-49 46 -1487 7
-1486 8 -25 -25z m2853 -295 c1 -207 18 -684 26 -692 3 -3 193 -8 422 -11
l417 -5 3 -1738 2 -1737 -1802 2 -1803 3 -3 2168 -2 2167 1370 0 1370 0 0
-157z m346 -131 c158 -166 312 -333 368 -399 l19 -23 -291 0 -292 0 0 305 c0
168 4 305 9 305 4 0 89 -85 187 -188z"/>
<path d="M1551 4584 l-240 -246 -3 -157 c-2 -86 -2 -226 0 -312 l3 -157 193
-231 c107 -127 265 -314 352 -416 87 -101 162 -196 166 -210 3 -14 10 -70 13
-123 l7 -98 -138 -10 -137 -11 -112 -114 c-61 -63 -127 -135 -148 -160 l-38
-47 0 -173 1 -173 157 -158 158 -158 836 0 837 0 236 241 236 241 0 222 c0
123 -3 265 -7 317 l-6 94 -504 503 -503 504 0 134 0 135 49 -58 c27 -32 65
-73 85 -92 l36 -35 348 -4 347 -5 78 83 77 82 0 119 c0 97 -3 125 -17 146 -10
15 -150 147 -311 293 l-292 267 -572 6 c-314 4 -656 7 -759 7 l-187 0 -241
-246z m1652 114 c-5 -7 -97 -125 -203 -262 -151 -195 -195 -258 -201 -290 -5
-23 -8 -131 -8 -241 l-1 -200 53 -60 c28 -34 169 -175 312 -315 143 -140 288
-284 322 -320 34 -36 66 -68 70 -72 5 -4 65 -63 135 -130 l126 -123 8 -259 7
-258 -214 -214 -214 -214 -65 0 -65 0 -51 63 c-29 35 -109 126 -178 204 -122
137 -126 143 -126 187 0 41 5 50 55 105 l56 60 149 -2 c165 -2 174 1 174 57 0
29 -8 42 -46 75 -25 22 -63 63 -84 91 l-38 50 -514 0 -514 0 2 133 c1 72 2
138 1 145 -1 8 -25 39 -54 70 -82 89 -168 189 -212 247 -47 63 -241 293 -372
443 l-93 105 0 256 0 256 212 212 213 213 684 0 c545 0 682 -3 674 -12z m232
-169 c66 -55 180 -156 253 -225 l132 -126 0 -59 c0 -56 -3 -63 -47 -120 l-48
-61 -275 6 c-151 3 -285 9 -297 12 -22 6 -193 194 -193 212 0 6 25 43 56 84
31 40 108 142 171 226 64 83 118 152 122 152 3 0 60 -46 126 -101z m-484
-2068 c-23 -27 -66 -72 -95 -98 -52 -48 -53 -50 -60 -121 -14 -136 -12 -140
154 -329 l148 -168 -626 -3 -627 -2 -132 132 -133 133 0 119 0 119 59 61 c32
33 89 94 126 134 l68 72 580 0 579 0 -41 -49z"/>
<path d="M1780 4471 c-5 -11 -7 -26 -4 -34 12 -33 765 -34 778 -1 14 38 1 41
-216 47 -116 4 -287 7 -379 7 -156 0 -169 -1 -179 -19z"/>
<path d="M1631 4192 c-25 -46 -13 -49 196 -57 237 -9 585 2 595 19 10 14 10
18 0 33 -6 10 -105 14 -394 19 -384 7 -386 7 -397 -14z"/>
<path d="M1688 3913 c-50 -4 -65 -22 -52 -58 7 -17 28 -18 388 -11 209 4 382
9 385 11 2 2 1 15 -3 28 -5 22 -13 25 -73 30 -70 7 -560 6 -645 0z"/>
<path d="M1898 3623 c-87 -4 -105 -13 -92 -46 5 -15 260 -27 566 -27 145 0
158 1 168 19 21 41 6 48 -128 54 -123 7 -336 6 -514 0z"/>
<path d="M2038 3333 c-37 -3 -48 -8 -54 -25 -14 -46 5 -48 378 -48 333 0 348
1 358 19 18 35 3 48 -68 55 -69 6 -530 5 -614 -1z"/>
<path d="M2291 3022 c-24 -46 -12 -49 186 -57 225 -9 555 2 565 19 10 14 10
18 0 33 -6 9 -102 14 -374 19 -364 7 -366 7 -377 -14z"/>
</g>
</svg>
